Coordinates
version=1
nRows=17
nColumns=24
inDegrees=yes

Units are S.I. units (second, meters, Newtons, ...)
Angles are in degrees.

endheader
time	pelvis_tilt	pelvis_list	pelvis_rotation	pelvis_tx	pelvis_ty	pelvis_tz	hip_flexion_r	hip_adduction_r	hip_rotation_r	knee_angle_r	ankle_angle_r	subtalar_angle_r	mtp_angle_r	hip_flexion_l	hip_adduction_l	hip_rotation_l	knee_angle_l	ankle_angle_l	subtalar_angle_l	mtp_angle_l	lumbar_extension	lumbar_bending	lumbar_rotation
      1.77933333	      0.41542628	      3.41011702	     -9.25340908	      1.51736970	      1.02238775	      0.27036842	     16.52249523	     -6.79599848	      0.03814515	    -60.48365206	      7.08211933	    -10.85882687	      0.26499303	     10.90810131	      8.88129657	     -2.94522849	    -19.48852697	     10.59531737	    -10.71864154	     -0.73092793	      1.44426080	     -5.97047252	      5.77823592
      1.78350000	      0.39778564	      3.33334210	     -9.13356789	      1.52209043	      1.02312625	      0.27000055	     17.13333020	     -6.54532280	      0.12153919	    -60.00857663	      7.27290457	    -10.97123180	      0.24571353	     10.42973513	      8.86353488	     -2.88614285	    -19.10109416	     10.63242399	    -10.58532627	     -0.75836603	      1.39684462	     -5.88964742	      5.68884135
      1.78766667	      0.40978039	      3.21507476	     -8.98850246	      1.52677428	      1.02389281	      0.26962541	     17.67169584	     -6.25680615	      0.16969569	    -59.45661776	      7.37101353	    -11.15842813	      0.16274957	      9.93638335	      8.80291692	     -2.82064758	    -18.76125986	     10.70689928	    -10.38467198	     -0.86042774	      1.22970422	     -5.76650615	      5.35995503
      1.79183333	      0.39851885	      3.12608610	     -8.85335973	      1.53146081	      1.02454065	      0.26927680	     18.23841150	     -5.99593622	      0.23201762	    -58.89654527	      7.56686062	    -11.25339077	      0.11264806	      9.47819962	      8.76974485	     -2.74615475	    -18.42984804	     10.73881166	    -10.24158246	     -0.92481359	      1.13950204	     -5.68722480	      5.22017015
      1.79600000	      0.37919375	      3.03108709	     -8.69270932	      1.53613535	      1.02514611	      0.26889970	     18.78968775	     -5.73848282	      0.26090300	    -58.28755946	      7.69379199	    -11.35122683	      0.06087476	      9.03225861	      8.73243335	     -2.63970817	    -18.10377867	     10.79049334	    -10.11078362	     -0.98629700	      1.05031325	     -5.59252285	      5.04815457
      1.80016667	      0.36556712	      2.96489208	     -8.54965564	      1.54086458	      1.02566837	      0.26855543	     19.33741183	     -5.51360852	      0.30610708	    -57.66840924	      7.81790703	    -11.41504046	      0.02889277	      8.57768679	      8.72527187	     -2.55158373	    -17.76741846	     10.84792692	     -9.99045044	     -1.02343339	      0.99584113	     -5.52603066	      4.92426093
      1.80433333	      0.35158055	      2.87704491	     -8.37771306	      1.54552632	      1.02616391	      0.26820056	     19.85695741	     -5.26649905	      0.33223331	    -56.99153372	      7.87206766	    -11.50930087	     -0.06923950	      8.14763977	      8.69472286	     -2.42645156	    -17.48400850	     10.92465576	     -9.86934867	     -1.13225200	      0.86229123	     -5.45877686	      4.59227629
      1.80850000	      0.31155845	      2.79146427	     -8.19600443	      1.55018133	      1.02656801	      0.26783706	     20.39145811	     -5.02578924	      0.34473812	    -56.28994707	      7.97621336	    -11.52979392	     -0.11383117	      7.75356522	      8.66295160	     -2.29330885	    -17.21531792	     10.98633471	     -9.76942678	     -1.18181448	      0.80378773	     -5.37680202	      4.47736432
      1.81266667	      0.29707185	      2.72714904	     -8.01310166	      1.55482243	      1.02694522	      0.26748817	     20.89366558	     -4.81484224	      0.36047563	    -55.56500861	      8.02626296	    -11.57561934	     -0.21712835	      7.33719863	      8.65740461	     -2.14552076	    -16.94041608	     11.05344234	     -9.68391017	     -1.29710639	      0.70763034	     -5.33384879	      4.19960660
      1.81683333	      0.25281471	      2.64474091	     -7.80860880	      1.55947259	      1.02724314	      0.26711390	     21.40082529	     -4.59181765	      0.34907918	    -54.79642185	      8.09517638	    -11.54937507	     -0.25407774	      6.96620321	      8.62844608	     -1.98099631	    -16.71007406	     11.13580485	     -9.60368932	     -1.33680256	      0.65131322	     -5.25540001	      4.10409615
      1.82100000	      0.24190302	      2.58219306	     -7.61575739	      1.56413275	      1.02753424	      0.26677238	     21.86674384	     -4.39214962	      0.35743019	    -54.00549987	      8.10682832	    -11.55844205	     -0.33330784	      6.55350245	      8.62526521	     -1.80616432	    -16.45755419	     11.22006142	     -9.54156381	     -1.42417662	      0.55606370	     -5.21030745	      3.83093518
      1.82516667	      0.18025085	      2.53457012	     -7.39685011	      1.56875614	      1.02768856	      0.26640333	     22.37940028	     -4.21754073	      0.33759544	    -53.19878490	      8.14899557	    -11.49458547	     -0.35433473	      6.21163010	      8.62844936	     -1.62325371	    -16.22667605	     11.29323733	     -9.45403689	     -1.44552712	      0.53990699	     -5.17080112	      3.75631429
      1.82933333	      0.13730069	      2.46475651	     -7.15811390	      1.57336406	      1.02786178	      0.26602447	     22.84091724	     -4.02443493	      0.30918967	    -52.33326524	      8.10968949	    -11.48635335	     -0.42994982	      5.85886666	      8.61470127	     -1.37961620	    -16.02779075	     11.36900546	     -9.46007456	     -1.53125230	      0.45153523	     -5.12553184	      3.41470323
      1.83350000	      0.10167098	      2.40201019	     -6.92202182	      1.57799593	      1.02799743	      0.26565707	     23.28217081	     -3.84870798	      0.27858941	    -51.45210062	      8.09982255	    -11.38571718	     -0.46083743	      5.50016301	      8.60336326	     -1.16092603	    -15.83077081	     11.46440827	     -9.40594764	     -1.56516514	      0.38295910	     -5.08304168	      3.31839685
      1.83766667	      0.05093958	      2.34338435	     -6.67466763	      1.58258972	      1.02806948	      0.26527754	     23.72621695	     -3.68348928	      0.23665142	    -50.53223260	      8.05316068	    -11.30055680	     -0.49310187	      5.16350517	      8.59569043	     -0.91175639	    -15.64573091	     11.55881178	     -9.38287865	     -1.60200322	      0.33005235	     -5.04235325	      3.13534459
      1.84183333	      0.00928161	      2.30800105	     -6.42190453	      1.58721310	      1.02809646	      0.26490126	     24.15388629	     -3.54918318	      0.20294973	    -49.60304364	      7.98956556	    -11.22971524	     -0.54706828	      4.81173497	      8.61556225	     -0.62954222	    -15.44353930	     11.63373696	     -9.42040798	     -1.67522206	      0.27123036	     -5.03300712	      2.81123720
      1.84600000	     -0.05820502	      2.26580801	     -6.16542942	      1.59178883	      1.02804502	      0.26452666	     24.59435976	     -3.41347395	      0.15892698	    -48.64666184	      7.92237091	    -11.08674813	     -0.57057894	      4.50899566	      8.61747911	     -0.37657414	    -15.28525600	     11.73216348	     -9.38215532	     -1.70535659	      0.23504679	     -5.01110570	      2.71881402
